<mxfile host="app.diagrams.net" modified="2024-04-24T13:50:39.566Z" agent="Mozilla/5.0 (Windows NT 10.0; Win64; x64) AppleWebKit/537.36 (KHTML, like Gecko) Chrome/124.0.0.0 Safari/537.36" version="24.2.8" etag="4XaeGDbMgjg1Xi6MOp6t" type="github">
  <diagram name="Page-1" id="foUpyz5Rv1200K6fPl8f">
    <mxGraphModel>
      <root>
        <mxCell id="0" />
        <mxCell id="1" parent="0" />
      </root>
    </mxGraphModel>
  </diagram>
</mxfile>
